<?xml version="1.0" encoding="UTF-8"?>
<svg width="64px" height="64px" viewBox="0 0 64 64" version="1.1" xmlns="http://www.w3.org/2000/svg" xmlns:xlink="http://www.w3.org/1999/xlink">
    <title>measure_speed</title>
    <g id="measure_speed" stroke="none" stroke-width="1" fill="none" fill-rule="evenodd">
        <path d="M36,8 C37.1045695,8 38,8.8954305 38,10 L38.0002541,12.8282018 C40.6753314,13.5848457 43.1432733,14.8348205 45.2995829,16.4736295 C45.341096,16.4211402 45.3865584,16.3708009 45.4350288,16.3223305 L46.8492424,14.9081169 C47.630291,14.1270683 48.8966209,14.1270683 49.6776695,14.9081169 L51.0918831,16.3223305 C51.8729317,17.1033791 51.8729317,18.369709 51.0918831,19.1507576 L49.6776695,20.5649712 C49.6291991,20.6134416 49.5788598,20.658904 49.5268835,20.7013585 C52.3336946,24.3942338 54,29.0025237 54,34 C54,46.1502645 44.1502645,56 32,56 C19.8497355,56 10,46.1502645 10,34 C10,23.9295105 16.766347,15.439386 26.0007496,12.8279179 L26,10 C26,8.8954305 26.8954305,8 28,8 L36,8 Z M32,16 C22.0588745,16 14,24.0588745 14,34 C14,43.9411255 22.0588745,52 32,52 C41.9411255,52 50,43.9411255 50,34 C50,24.0588745 41.9411255,16 32,16 Z M32,18 C34.581712,18 37.0206089,18.6114647 39.1797685,19.6974723 L37.5888877,21.1600729 C35.8769248,20.4138598 33.9867935,20 32,20 C24.2680135,20 18,26.2680135 18,34 C18,41.7319865 24.2680135,48 32,48 C39.7319865,48 46,41.7319865 46,34 C46,32.0132065 45.5861402,30.1230752 44.8399271,28.4111123 L46.3028185,26.8208122 C47.3885353,28.9793911 48,31.418288 48,34 C48,42.836556 40.836556,50 32,50 C23.163444,50 16,42.836556 16,34 C16,25.163444 23.163444,18 32,18 Z M43.3137085,22.6862915 C43.7089061,23.0814891 43.7221615,23.718022 43.3437587,24.1293293 L35.6886733,32.4501212 C36.2988502,33.9038002 36.0121015,35.6447527 34.8284271,36.8284271 C33.7284222,37.9284321 32.1471384,38.2538303 30.7623942,37.804622 L29.1114724,39.5992058 C28.3941281,40.3789278 27.1805162,40.4294949 26.4007942,39.7121507 L26.3431458,39.6568542 C25.5939632,38.9076717 25.5939632,37.6930067 26.3431458,36.9438241 L26.4007942,36.8885276 L28.195378,35.2376058 C27.7461697,33.8528616 28.0715679,32.2715778 29.1715729,31.1715729 C30.3552473,29.9878985 32.0961998,29.7011498 33.5498788,30.3113267 L41.8706707,22.6562413 C42.281978,22.2778385 42.9185109,22.2910939 43.3137085,22.6862915 Z" id="Shape" fill="#000000" fill-rule="nonzero"></path>
    </g>
</svg>