<svg version="1.0" xmlns="http://www.w3.org/2000/svg" width="960" height="960" viewBox="0 -200 1000 1000">
  <path d="M23.951 383.754c-6.311-2.016-11.049-6.049-13.475-11.525-1.311-3.049-1.393-5.344-1.59-118.754l-.213-115.623 1.459-3.131c1.869-4.033 6.738-8.475 11.115-10.131 3.328-1.311 12.918-1.311 478.754-1.311 464.59 0 475.41 0 478.754 1.311 4.508 1.738 8.607 5.492 10.557 9.787l1.672 3.475v231.459l-2.295 4.377c-2.639 5.131-6.525 8.41-11.738 10-3.197.902-54.59 1.049-476.869.967-379.656 0-473.885-.213-476.115-.902zm950.213-128.541c.066-59.934 0-110.344-.213-112.016l-.41-2.918-473.754.131-473.754.213-.213 112.016-.131 111.951 474.098-.131 474.164-.213z"/>
  <path d="M59.443 331.115c-.557-2.082-.557-30.689 0-32.082.41-.967 8.131-1.115 80.77-1.115 90.213 0 85.344.213 96.459-5.213 10.689-5.279 17.918-13.82 22.082-26.049 1.049-3.049 1.311-5.902 1.311-13.885 0-8.754-.213-10.77-1.672-15.213-4.59-13.885-14.934-23.41-29.656-27.148-5.066-1.311-7.852-1.393-54.59-1.393h-49.163v36.311c0 19.934-.279 36.672-.557 37.148-.492.689-7.492.836-32.852.689l-32.23-.213-.213-51.951c-.066-35 .066-52.361.557-53.328.77-1.311 2.295-1.311 95.344-1.311 101.049 0 102.23.066 114.311 3.475 14.656 4.098 27.984 13.689 37.705 26.869 18.197 24.721 18.885 65.623 1.59 91.59-11.246 16.869-26.672 27.23-48.754 32.705-4.311 1.049-13.41 1.18-102.361 1.393l-97.705.279-.41-1.59zm273.196-3.885c0-.279 9.787-12.082 21.738-26.246a40544 40544 0 0 1 36.951-44.033c26.869-32.148 32.984-39.377 50.689-60.344l17.426-20.557h59.656l8.328 9.787c4.59 5.344 11.459 13.475 15.279 17.984 10.902 12.984 45.623 53.885 54.508 64.23 16.525 19.311 48.951 57.852 49.508 58.754.492.836-5 .967-36.59.967H573.05l-13.049-15.623-13.131-15.623H403.755l-13.328 15.623-13.328 15.623h-22.23c-12.23 0-22.23-.213-22.23-.557zM526.59 270c-.279-.492-6.311-7.77-13.41-16.18-7.082-8.41-18.475-21.951-25.279-30.066-11.869-14.23-12.426-14.787-13.607-13.541-.967 1.049-9.164 10.689-36.115 42.574a1215 1215 0 0 0-9.508 11.246c-2.77 3.262-5.066 6.115-5.066 6.393 0 .213 23.328.41 51.803.41 41.246 0 51.672-.213 51.18-.836m150.986 57.361c-.279-.279-.492-34.377-.492-75.77v-75.213h110.967c91.803.066 111.803.213 116.311 1.049 15.77 2.77 27.492 13.951 30.689 29.164 1.311 6.115 1.246 9.869 0 15.967-2.77 13.197-11.738 23.049-25 27.492l-5.557 1.869 3.131.836c5.967 1.525 7.574 2.148 11.59 4.787 12.639 8.197 19.033 23.541 15.902 38.262-3.049 14.508-12.361 24.869-26.459 29.721l-5.557 1.869-112.574.213c-61.869.066-112.705-.066-112.984-.279zm186.951-28.475c11.18-5.623 10.77-21.525-.689-27.426-2.492-1.246-5.131-1.311-62.574-1.311l-59.934-.066-.213 15.279-.131 15.344h119.869l3.689-1.803zm-1.311-67.016c6.246-2.852 9.033-7.082 9.033-13.82 0-7.426-4.443-13.131-11.393-14.59-2.361-.492-23.328-.623-61.869-.557l-58.328.213.131 6.951c0 3.82.066 10.623.131 15.131l.066 8.131h59.59c58.41 0 59.59-.066 62.639-1.459m77.343-52.64c-9.164-4.164-10-17.705-1.459-22.852 8.82-5.344 20 .836 19.934 11.115 0 3.328-1.869 7.918-3.885 9.721-3.82 3.328-9.787 4.164-14.59 2.016m10.77-3.131c3.049-1.59 4.508-4.377 4.59-8.885 0-3.262-.279-4.23-1.738-5.77-3.541-3.82-8.41-4.869-12.705-2.77-3.131 1.525-4.787 4.164-5.213 7.984-.557 6.18 3.41 10.41 9.787 10.41 1.803 0 4.23-.492 5.279-.967"/>
  <path d="M940.557 173.41c-.213-.557-.279-3.41-.131-6.459l.213-5.492 4.311-.213c3.951-.213 4.377-.066 5.492 1.59 1.115 1.738 1.115 1.869-.213 3.689l-1.393 1.869 1.59 2.361c.902 1.311 1.459 2.639 1.246 2.984-.623.967-2.295.623-3.049-.77-1.115-2.148-2.77-3.541-4.23-3.541-1.049 0-1.311.492-1.311 2.426 0 1.738-.279 2.426-1.049 2.426-.623 0-1.246-.41-1.459-.902zm7.016-8.475c0-.902-.557-1.459-1.672-1.59-1.951-.279-3.197.77-2.574 2.295.623 1.738 4.23 1.115 4.23-.689z"/>
</svg>