<?xml version="1.0" encoding="UTF-8"?>
<svg xmlns="http://www.w3.org/2000/svg" xmlns:xlink="http://www.w3.org/1999/xlink" width="960px" height="960px" viewBox="0 0 960 960" version="1.1">
<g id="surface1">
<path style=" stroke:none;fill-rule:nonzero;fill:rgb(0%,0%,0%);fill-opacity:1;" d="M 486.707031 942.921875 C 476.964844 940.425781 457.21875 931.046875 444.726562 922.800781 C 438.476562 918.796875 432.726562 915.929688 430.726562 915.929688 C 424.855469 915.929688 414.859375 910.433594 413.113281 906.3125 C 411.117188 901.441406 407.363281 899.8125 400.121094 900.5625 C 396.117188 901.066406 392.375 900.5625 388.621094 899.195312 C 383.875 897.324219 382.871094 896.320312 381.753906 892.199219 C 380.257812 886.703125 376.878906 885.332031 366.636719 885.824219 C 358.261719 886.199219 352.136719 883.324219 349.765625 877.828125 C 347.515625 872.453125 343.511719 870.582031 335.640625 871.703125 C 327.144531 872.828125 318.769531 868.953125 316.773438 862.953125 C 315.152344 857.957031 315.519531 858.082031 304.53125 858.457031 C 298.65625 858.582031 295.53125 858.082031 291.539062 855.957031 C 288.664062 854.460938 283.414062 852.832031 279.789062 852.207031 C 276.160156 851.578125 270.410156 849.832031 266.917969 848.328125 C 260.917969 845.828125 260.542969 845.328125 260.542969 841.082031 C 260.542969 836.839844 260.042969 836.210938 254.667969 833.589844 C 244.675781 828.839844 233.929688 821.964844 228.429688 816.839844 C 211.933594 801.726562 198.1875 774.234375 195.691406 751.359375 C 194.9375 745.234375 193.816406 711.125 193.066406 675.386719 C 188.070312 420.601562 188.320312 426.726562 177.949219 364.871094 C 172.703125 333.257812 168.082031 313.011719 158.328125 278.652344 C 148.835938 245.410156 148.710938 243.285156 150.457031 204.179688 C 152.328125 162.195312 156.582031 88.59375 157.449219 81.476562 C 158.078125 77.722656 159.070312 75.601562 161.203125 74.230469 C 164.703125 71.980469 202.316406 60.234375 223.058594 55.109375 C 237.429688 51.484375 273.035156 44.113281 309.277344 37.496094 C 319.898438 35.5 332.890625 33 338.015625 31.996094 C 359.007812 27.625 404.363281 23.375 433.601562 22.871094 C 498.332031 21.867188 530.695312 22.746094 579.179688 26.875 C 637.28125 31.996094 716.007812 44.488281 721.878906 49.621094 C 726.625 53.867188 744.742188 139.34375 755.246094 208.066406 C 768.242188 291.914062 775.246094 363.257812 780.617188 467.347656 C 782.742188 507.582031 782.742188 655.40625 780.617188 694.144531 C 776.121094 776.238281 771.125 837.601562 768.375 841.84375 C 766.003906 845.597656 747.132812 857.085938 722.265625 869.839844 C 664.90625 899.328125 608.175781 919.941406 533.078125 938.320312 C 509.460938 944.195312 496.71875 945.4375 486.714844 942.941406 Z M 497.203125 905.9375 C 502.828125 836.839844 504.699219 786.476562 504.699219 692.882812 C 504.699219 595.792969 502.828125 542.6875 496.074219 454.21875 C 491.578125 396.984375 479.828125 290.148438 472.335938 238.539062 C 470.589844 226.539062 468.832031 214.425781 468.332031 211.550781 C 467.703125 206.550781 467.328125 206.050781 462.457031 204.804688 C 459.707031 204.179688 452.839844 202.183594 447.339844 200.5625 C 441.839844 198.941406 425.347656 194.4375 410.855469 190.691406 C 388.988281 185.070312 384.242188 184.191406 384.242188 185.820312 C 384.242188 186.949219 387.617188 205.566406 391.863281 227.308594 C 395.980469 249.054688 402.734375 285.410156 406.855469 308.03125 C 410.972656 330.777344 415.980469 358.011719 417.976562 368.632812 C 429.476562 428.363281 446.460938 548.195312 455.335938 631.664062 C 464.085938 713.632812 471.707031 838.09375 471.707031 900.324219 C 471.707031 913.566406 472.082031 925.316406 472.460938 926.4375 C 472.835938 927.4375 476.578125 929.4375 480.832031 930.804688 C 491.578125 934.183594 493.449219 934.433594 494.328125 932.175781 C 494.828125 931.171875 496.074219 919.308594 497.203125 905.9375 Z M 528.5625 928.800781 C 603.914062 910.183594 660.144531 889.933594 715.371094 861.324219 C 743.238281 846.949219 759.109375 837.207031 759.726562 834.082031 C 761.972656 822.707031 768.222656 729.367188 770.347656 677.257812 C 771.96875 635.148438 771.96875 530.4375 770.347656 487.324219 C 766.59375 387.484375 757.726562 292.398438 744.234375 205.550781 C 735.859375 151.941406 734.980469 147.449219 733.488281 147.449219 C 730.488281 147.449219 727.988281 142.828125 722.488281 127.828125 C 719.488281 119.453125 715.988281 111.082031 714.742188 109.207031 C 711.992188 104.964844 714.992188 104.460938 647.015625 119.328125 C 556.925781 139.074219 502.691406 152.195312 499.566406 155.195312 C 496.316406 158.320312 496.066406 159.195312 493.566406 179.058594 C 492.5625 187.933594 490.816406 196.800781 489.816406 198.804688 C 487.941406 202.433594 482.195312 206.175781 478.566406 206.175781 C 477.5625 206.175781 476.695312 206.804688 476.695312 207.546875 C 476.695312 208.296875 478.691406 222.789062 481.066406 239.660156 C 493.808594 329.007812 502.183594 409.351562 507.929688 496.691406 C 516.554688 629.398438 515.804688 802.335938 506.058594 907.550781 C 503.4375 935.292969 503.4375 934.917969 507.679688 933.914062 C 509.550781 933.539062 518.929688 931.164062 528.546875 928.792969 Z M 462.957031 880.066406 C 462.957031 827.085938 452.714844 682.011719 442.960938 596.042969 C 433.46875 512.820312 418.46875 414.726562 402.976562 333.636719 C 396.851562 301.648438 379.359375 206.675781 376.613281 190.808594 C 375.859375 186.0625 374.613281 182.058594 373.738281 181.683594 C 370.988281 180.679688 330.878906 173.8125 317.132812 171.941406 C 295.765625 168.941406 247.65625 165.070312 220.792969 164.195312 C 196.550781 163.316406 196.550781 163.316406 197.425781 196.308594 C 197.929688 214.425781 198.679688 233.792969 199.171875 239.167969 C 199.925781 249.035156 199.925781 249.035156 210.546875 252.539062 C 274.648438 273.027344 311.015625 286.398438 332.507812 297.144531 C 364.871094 313.386719 393.609375 352.003906 404.105469 393.109375 C 411.222656 421.46875 426.222656 521.9375 435.96875 607.90625 C 445.460938 690.375 454.460938 810.714844 455.839844 871.316406 C 456.089844 883.066406 456.464844 885.1875 458.460938 886.683594 C 462.464844 889.558594 462.957031 888.804688 462.957031 880.058594 Z M 446.714844 845.203125 C 443.335938 761.355469 436.34375 681.257812 422.347656 566.050781 C 410.472656 468.457031 400.101562 405.484375 392.355469 383.613281 C 382.234375 355.378906 360.242188 325.261719 339.5 311.640625 C 325.003906 301.898438 268.523438 279.777344 218.917969 264.410156 C 210.796875 261.914062 203.300781 259.414062 202.171875 259.039062 C 200.675781 258.410156 200.300781 258.789062 200.917969 260.292969 C 202.539062 264.410156 210.789062 303.652344 213.664062 320.523438 C 223.90625 380.507812 233.785156 542.078125 236.160156 688.523438 C 237.035156 741.5 237.035156 741.125 242.410156 746.375 C 244.65625 748.496094 272.023438 765.742188 303.257812 784.488281 C 379.359375 830.347656 390.976562 837.839844 440.335938 873.582031 C 444.089844 876.207031 447.332031 878.203125 447.582031 877.953125 C 447.832031 877.703125 447.457031 862.960938 446.703125 845.210938 Z M 519.691406 67.351562 C 543.054688 62.605469 572.167969 56.355469 584.167969 53.730469 C 596.167969 51.109375 610.03125 48.234375 614.785156 47.355469 C 619.65625 46.601562 624.277344 45.609375 625.15625 45.109375 C 628.15625 43.488281 561.929688 36.234375 520.816406 33.734375 C 482.078125 31.488281 462.714844 31.988281 437.972656 36.234375 C 405.859375 41.730469 356.75 51.476562 356.75 52.476562 C 356.75 52.855469 363.125 54.222656 370.871094 55.476562 C 387.742188 58.101562 471.957031 74.722656 472.710938 75.601562 C 473.964844 76.726562 477.207031 76.226562 519.699219 67.351562 Z M 519.691406 67.351562 "/>
<path style=" stroke:none;fill-rule:nonzero;fill:rgb(0%,0%,0%);fill-opacity:1;" d="M 622.03125 888.4375 C 614.785156 886.941406 610.03125 884.195312 605.660156 879.0625 C 600.664062 872.9375 599.785156 869.070312 596.167969 840.324219 C 590.917969 798.957031 577.296875 674.507812 569.804688 600.402344 C 563.804688 541.550781 556.058594 472.199219 544.808594 378.609375 C 542.4375 358.371094 539.5625 334.496094 538.433594 325.503906 C 537.429688 316.628906 533.183594 284.265625 529.183594 253.65625 C 525.0625 223.039062 521.6875 194.425781 521.6875 189.929688 C 521.8125 177.1875 526.808594 168.691406 536.675781 164.4375 C 542.675781 162.0625 607.03125 146.195312 642.269531 138.574219 C 688.003906 128.578125 689.875 128.328125 694.746094 129.949219 C 699.242188 131.445312 704.742188 137.070312 706.863281 142.316406 C 713.113281 158.4375 727.980469 274.773438 733.476562 350.5 C 741.851562 466.335938 738.347656 570.671875 722.105469 684.761719 C 709.613281 773.605469 692.992188 839.210938 678.617188 856.574219 C 674.121094 862.199219 673.621094 859.703125 677.867188 852.082031 C 688.863281 832.335938 703.855469 769.488281 715.855469 694.136719 C 725.105469 635.785156 729.347656 587.425781 731.847656 510.699219 C 735.097656 409.980469 727.476562 294.402344 710.855469 191.183594 C 705.234375 155.695312 701.363281 141.949219 695.992188 137.453125 C 693.242188 135.207031 692.742188 136.082031 687.992188 151.199219 C 685.121094 160.199219 684.242188 164.320312 685.246094 164.695312 C 688.371094 165.699219 694.371094 171.691406 696.617188 176.070312 C 701.488281 185.6875 706.359375 213.554688 712.109375 263.660156 C 720.359375 335.257812 722.980469 381.367188 722.980469 455.09375 C 722.855469 569.804688 714.609375 659.148438 695.363281 752.238281 C 691.988281 769.109375 687.617188 787.980469 685.871094 794.09375 C 684.125 800.347656 682.246094 808.46875 681.753906 812.210938 C 680.257812 822.582031 676.878906 833.203125 672.5 841.324219 C 667.253906 851.195312 656.007812 862.691406 647.757812 866.570312 C 635.640625 872.195312 620.890625 869.945312 612.144531 861.195312 C 607.648438 856.574219 607.648438 856.574219 608.265625 861.824219 C 609.269531 869.695312 612.886719 876.070312 618.886719 880.316406 C 623.882812 883.691406 625.261719 884.070312 634.253906 884.070312 C 639.625 884.070312 644.121094 884.195312 644.121094 884.445312 C 644.121094 885.324219 635.75 888.195312 631.628906 888.816406 C 629.257812 889.066406 624.886719 888.941406 622.011719 888.4375 Z M 656.640625 852.449219 C 671.265625 837.699219 677.382812 817.335938 672.257812 799.96875 C 670.136719 792.851562 663.132812 784.726562 659.265625 784.726562 C 657.394531 784.726562 657.644531 785.480469 661.011719 789.097656 C 666.511719 794.847656 669.132812 803.09375 669.132812 814.59375 C 669.132812 830.460938 663.386719 844.082031 652.765625 854.078125 C 649.386719 857.203125 647.390625 859.703125 648.019531 859.703125 C 648.769531 859.703125 652.640625 856.449219 656.640625 852.457031 Z M 606.664062 818.589844 C 606.664062 813.339844 616.039062 797.847656 623.785156 790.226562 C 634.03125 779.980469 643.15625 775.476562 653.398438 775.476562 C 662.652344 775.601562 667.144531 777.726562 673.765625 785.222656 C 678.636719 790.84375 678.636719 790.84375 684.511719 761.230469 C 697.003906 698.625 705.375 629.777344 710.625 546.054688 C 712.871094 511.316406 712.871094 379.234375 710.625 350.5 C 704.5 270.152344 697.003906 203.550781 692.007812 185.804688 C 689.757812 177.679688 684.511719 171.179688 680.257812 171.179688 C 672.386719 171.179688 560.050781 199.171875 553.675781 202.792969 C 550.925781 204.285156 547.550781 207.410156 546.304688 209.660156 C 541.433594 217.90625 541.683594 221.660156 552.804688 317.375 C 554.804688 334.863281 557.675781 362.230469 559.183594 377.972656 C 560.550781 393.839844 563.425781 424.460938 565.433594 446.078125 C 567.429688 467.695312 570.304688 498.0625 571.683594 513.554688 C 573.179688 529.046875 574.808594 546.171875 575.4375 551.667969 C 576.5625 560.792969 586.433594 655.253906 591.054688 700.371094 C 593.300781 722.238281 601.046875 792.339844 603.054688 809.957031 C 603.929688 816.699219 605.050781 821.828125 605.550781 821.453125 C 606.179688 821.078125 606.679688 819.832031 606.679688 818.578125 Z M 538.433594 247.90625 C 534.679688 203.792969 537.0625 199.046875 566.667969 190.550781 C 584.410156 185.425781 657.007812 167.183594 668.757812 164.8125 C 676.628906 163.316406 676.628906 163.316406 680.382812 151.191406 C 684.5 137.695312 684.753906 136.199219 682.628906 136.199219 C 680.132812 136.199219 571.539062 161.320312 554.804688 165.691406 C 545.929688 168.0625 537.3125 170.9375 535.808594 171.941406 C 527.8125 177.0625 527.183594 187.183594 532.183594 221.792969 C 533.929688 234.160156 536.300781 250.90625 537.429688 259.03125 C 538.683594 267.027344 539.804688 273.527344 540.054688 273.152344 C 540.304688 272.902344 539.550781 261.527344 538.433594 247.90625 Z M 538.433594 247.90625 "/>
<path style=" stroke:none;fill-rule:nonzero;fill:rgb(0%,0%,0%);fill-opacity:1;" d="M 573.179688 386.742188 C 571.683594 384.867188 570.179688 381.617188 569.804688 379.371094 C 567.554688 366.625 555.179688 253.039062 554.5625 240.546875 C 553.808594 225.679688 553.808594 225.554688 557.183594 221.550781 C 559.058594 219.304688 563.308594 216.554688 567.179688 215.050781 C 585.546875 208.183594 666.644531 190.433594 673.640625 191.8125 C 678.257812 192.691406 683.507812 198.1875 684.636719 203.308594 C 686.507812 212.4375 690.636719 240.546875 693.511719 263.667969 C 699.886719 317.148438 702.007812 349.640625 699.132812 354.886719 C 697.011719 358.890625 688.136719 363.132812 671.015625 368.507812 C 647.023438 375.878906 594.914062 388.628906 584.667969 389.5 C 576.171875 390.125 575.792969 390.125 573.171875 386.75 Z M 605.042969 349.628906 C 609.539062 345.386719 608.792969 340.503906 603.171875 337.511719 C 600.546875 336.144531 599.792969 336.257812 597.171875 338.765625 C 593.542969 342.144531 593.292969 346.511719 596.667969 349.890625 C 599.917969 353.140625 601.414062 353.015625 605.042969 349.640625 Z M 627.160156 346.628906 C 629.910156 344.007812 629.660156 339.511719 626.660156 336.761719 C 624.539062 334.890625 623.660156 334.765625 621.035156 335.882812 C 618.664062 337.011719 617.910156 338.257812 617.910156 341.507812 C 617.910156 348.132812 622.90625 351 627.160156 346.628906 Z M 656.652344 334.503906 C 656.652344 331.011719 653.777344 328.136719 650.273438 328.136719 C 646.773438 328.136719 644.023438 331.011719 644.023438 334.503906 C 644.023438 337.878906 646.773438 340.753906 650.273438 340.753906 C 653.777344 340.753906 656.652344 337.878906 656.652344 334.503906 Z M 674.140625 330.886719 C 675.511719 329.390625 676.640625 327.132812 676.640625 325.890625 C 676.640625 323.515625 672.519531 318.644531 670.386719 318.644531 C 668.015625 318.644531 664.136719 323.640625 664.136719 326.640625 C 664.136719 328.386719 665.390625 330.644531 666.886719 331.640625 C 670.511719 334.261719 671.007812 334.136719 674.132812 330.886719 Z M 605.167969 324.019531 C 604.917969 322.765625 603.914062 321.769531 602.917969 321.769531 C 601.917969 321.769531 600.921875 322.773438 600.671875 324.019531 C 600.421875 325.511719 601.046875 326.140625 602.917969 326.140625 C 604.792969 326.140625 605.417969 325.511719 605.167969 324.019531 Z M 635.410156 320.390625 C 643.28125 318.519531 650.273438 316.640625 650.902344 316.144531 C 651.527344 315.519531 651.527344 313.019531 651.152344 310.648438 C 650.148438 305.148438 649.65625 305.148438 631.03125 309.644531 C 617.785156 312.894531 617.285156 313.273438 616.90625 316.640625 C 616.40625 321.007812 617.285156 323.632812 619.40625 323.632812 C 620.285156 323.632812 627.527344 322.136719 635.398438 320.382812 Z M 641.660156 299.902344 C 660.777344 295.28125 666.152344 293.523438 666.402344 291.777344 C 666.652344 290.652344 666.402344 289.15625 665.777344 288.527344 C 665.148438 287.902344 650.785156 291.027344 632.910156 295.523438 C 615.539062 300.019531 600.171875 303.644531 598.925781 303.644531 C 596.675781 303.644531 596.050781 305.640625 597.429688 309.019531 C 597.929688 310.640625 599.425781 310.511719 607.675781 308.390625 C 612.921875 307.019531 628.289062 303.144531 641.660156 299.890625 Z M 667.15625 308.902344 C 667.40625 308.398438 667.28125 307.15625 666.652344 306.152344 C 665.777344 304.78125 665.160156 304.65625 664.03125 305.777344 C 663.277344 306.527344 663.027344 307.773438 663.402344 308.523438 C 664.40625 310.144531 666.277344 310.273438 667.15625 308.902344 Z M 630.421875 291.410156 C 663.539062 283.039062 663.539062 283.039062 663.539062 278.667969 C 663.539062 275.417969 663.035156 274.425781 661.664062 274.792969 C 660.664062 275.042969 652.046875 277.039062 642.671875 279.410156 C 633.179688 281.785156 624.554688 283.65625 623.550781 283.65625 C 620.300781 283.65625 621.554688 280.03125 625.171875 279.160156 C 627.042969 278.660156 636.171875 276.160156 645.410156 273.789062 C 662.285156 269.167969 662.285156 269.167969 662.160156 264.539062 C 662.03125 261.914062 661.78125 259.664062 661.53125 259.289062 C 661.28125 259.039062 652.53125 261.035156 642.285156 263.785156 C 623.167969 268.78125 617.917969 269.535156 617.917969 267.539062 C 617.917969 265.414062 620.667969 264.410156 641.03125 259.289062 C 661.03125 254.292969 661.03125 254.292969 660.527344 249.296875 C 660.402344 246.546875 659.902344 243.921875 659.652344 243.546875 C 659.398438 243.171875 647.285156 245.542969 632.660156 248.917969 C 618.035156 252.296875 603.042969 255.664062 599.542969 256.539062 C 593.167969 257.910156 592.917969 258.160156 592.917969 262.039062 C 592.917969 269.160156 596.292969 300.027344 597.035156 299.902344 C 597.160156 299.777344 612.152344 296.023438 630.402344 291.402344 Z M 632.917969 239.425781 C 643.539062 236.929688 653.535156 234.679688 655.164062 234.304688 C 657.285156 233.804688 657.914062 232.808594 657.914062 229.933594 C 657.914062 227.8125 657.539062 226.183594 657.035156 226.183594 C 656.410156 226.183594 642.789062 229.433594 626.667969 233.550781 C 610.550781 237.554688 595.800781 241.296875 593.929688 241.675781 C 591.304688 242.300781 590.425781 243.171875 590.425781 245.425781 C 590.425781 246.921875 590.804688 248.550781 591.179688 248.929688 C 591.554688 249.429688 596.804688 248.425781 602.675781 246.804688 C 608.675781 245.183594 622.296875 241.933594 632.917969 239.4375 Z M 632.917969 239.425781 "/>
<path style=" stroke:none;fill-rule:nonzero;fill:rgb(0%,0%,0%);fill-opacity:1;" d="M 387.117188 830.964844 C 375.242188 828.214844 359.246094 814.09375 352.003906 799.980469 C 343.878906 784.234375 340.378906 771.367188 340.378906 756.617188 C 340.378906 734.5 347.375 719.507812 361.121094 712.878906 C 366.867188 710.007812 369.117188 709.503906 373.738281 710.257812 C 382.488281 711.386719 391.351562 716.882812 402.347656 727.871094 C 419.09375 744.492188 427.09375 763.863281 427.21875 787.855469 C 427.21875 805.226562 424.84375 811.71875 414.976562 821.714844 C 405.484375 831.207031 398.105469 833.589844 387.109375 830.964844 Z M 353.007812 736.246094 C 354.753906 732.242188 358.128906 727.621094 361.628906 724.496094 C 366.625 720 366.878906 719.625 363.125 721.746094 C 353.875 726.992188 347.882812 740.742188 348.132812 755.730469 C 348.386719 764.105469 348.386719 764.105469 349.261719 753.484375 C 349.765625 746.855469 351.257812 740.363281 353.015625 736.234375 Z M 353.007812 736.246094 "/>
</g>
</svg>
